HIERARCHY
ROOT Hips
{
	OFFSET	0.00	0.00	0.00
	CHANNELS 6 Xposition Yposition Zposition Zrotation Xrotation Yrotation
	JOINT LeftUpLeg
	{
		OFFSET	 0.126116	-0.014019	-0.065224
		CHANNELS 3 Zrotation Xrotation Yrotation
		JOINT LeftLeg
		{
			OFFSET	 0.000000	 0.000000	 0.569914
			CHANNELS 3 Zrotation Xrotation Yrotation
			JOINT LeftFoot
			{
				OFFSET	 0.000000	 0.000000	 0.544423
				CHANNELS 3 Zrotation Xrotation Yrotation
				JOINT LeftToeBase
				{
					OFFSET	 0.000000	 0.000000	 0.207117
					CHANNELS 3 Zrotation Xrotation Yrotation
					End Site
					{
						OFFSET	 0.000000	 0.000000	 0.207117
					}
				}
			}
		}
	}
	JOINT RightUpLeg
	{
		OFFSET	-0.124023	-0.008373	-0.065224
		CHANNELS 3 Zrotation Xrotation Yrotation
		JOINT RightLeg
		{
			OFFSET	 0.000000	 0.000000	 0.570047
			CHANNELS 3 Zrotation Xrotation Yrotation
			JOINT RightFoot
			{
				OFFSET	 0.000000	 0.000000	 0.544354
				CHANNELS 3 Zrotation Xrotation Yrotation
				JOINT RightToeBase
				{
					OFFSET	 0.000000	 0.000000	 0.207540
					CHANNELS 3 Zrotation Xrotation Yrotation
					End Site
					{
						OFFSET	 0.000000	 0.000000	 0.207540
					}
				}
			}
		}
	}
	JOINT Spine
	{
		OFFSET	 0.000184	-0.007763	 0.117403
		CHANNELS 3 Zrotation Xrotation Yrotation
		JOINT Spine1
		{
			OFFSET	 0.000000	 0.000000	 0.137269
			CHANNELS 3 Zrotation Xrotation Yrotation
			JOINT Spine2
			{
				OFFSET	 0.000000	 0.000000	 0.156879
				CHANNELS 3 Zrotation Xrotation Yrotation
				JOINT LeftShoulder
				{
					OFFSET	 0.080501	-0.002496	 0.160144
					CHANNELS 3 Zrotation Xrotation Yrotation
					JOINT LeftArm
					{
						OFFSET	 0.000000	 0.000000	 0.164363
						CHANNELS 3 Zrotation Xrotation Yrotation
						JOINT LeftForeArm
						{
							OFFSET	 0.000000	 0.000000	 0.364576
							CHANNELS 3 Zrotation Xrotation Yrotation
							JOINT LeftHand
							{
								OFFSET	 0.000000	 0.000000	 0.360812
								CHANNELS 3 Zrotation Xrotation Yrotation
								JOINT LeftHandIndex1
								{
									OFFSET	 0.000000	 0.000000	 0.086006
									CHANNELS 3 Zrotation Xrotation Yrotation
									JOINT LeftHandIndex2
									{
										OFFSET	 0.000000	 0.000000	 0.047236
										CHANNELS 3 Zrotation Xrotation Yrotation
										JOINT LeftHandIndex3
										{
											OFFSET	-0.004284	-0.000551	 0.038166
											CHANNELS 3 Zrotation Xrotation Yrotation
											End Site
											{
												OFFSET	-0.004284	-0.000551	 0.038166
											}
										}
									}
								}
							}
						}
					}
				}
				JOINT Neck
				{
					OFFSET	 0.000000	 0.000000	 0.176489
					CHANNELS 3 Zrotation Xrotation Yrotation
					JOINT Head
					{
						OFFSET	 0.000000	-0.001747	 0.077940
						CHANNELS 3 Zrotation Xrotation Yrotation
						End Site
						{
							OFFSET	 0.000000	-0.001747	 0.077940
						}
					}
				}
				JOINT RightShoulder
				{
					OFFSET	-0.080363	 0.000306	 0.159706
					CHANNELS 3 Zrotation Xrotation Yrotation
					JOINT RightArm
					{
						OFFSET	 0.000000	 0.000000	 0.164196
						CHANNELS 3 Zrotation Xrotation Yrotation
						JOINT RightForeArm
						{
							OFFSET	 0.000000	 0.000000	 0.365611
							CHANNELS 3 Zrotation Xrotation Yrotation
							JOINT RightHand
							{
								OFFSET	 0.000000	 0.000000	 0.360648
								CHANNELS 3 Zrotation Xrotation Yrotation
								JOINT RightHandIndex1
								{
									OFFSET	 0.000000	 0.000000	 0.069977
									CHANNELS 3 Zrotation Xrotation Yrotation
									JOINT RightHandIndex2
									{
										OFFSET	 0.000000	 0.000000	 0.052305
										CHANNELS 3 Zrotation Xrotation Yrotation
										JOINT RightHandIndex3
										{
											OFFSET	 0.009002	-0.000782	 0.042196
											CHANNELS 3 Zrotation Xrotation Yrotation
											End Site
											{
												OFFSET	 0.009002	-0.000782	 0.042196
											}
										}
									}
								}
							}
						}
					}
				}
			}
		}
	}
}
MOTION
Frames:    8
Frame Time: 0.03333334
 0.000181	 0.041518	 1.275310	-0.110364	 1.985255	 0.457517	 6.425755	-5.230013	 177.924600	 2.386493	-13.089780	 0.635303	-0.840258	 71.128030	 0.623259	-2.385833	 28.452750	 0.000004	 1.225009	-4.844163	-178.155900	-0.808922	-11.783350	 0.887364	 5.777508	 70.152340	 0.524714	 2.384659	 28.388700	-0.000001	-6.746582	 6.027809	 1.266242	-3.009664	-2.136643	-0.094376	 9.425560	 4.647920	-0.449749	-91.291650	 70.656710	-178.124300	-9.909852	 3.632028	-24.970070	 26.152340	-0.129283	-0.668935	-11.634680	-28.181840	-4.593572	-2.027600	 6.559038	 9.033609	-5.188889	 0.308190	 3.541030	-5.234859	 0.342567	 0.430617	 4.125963	 15.515360	-5.978487	 4.456069	-11.915120	 2.141649	 89.181100	 69.877200	 177.724100	 9.708273	 8.552773	 3.298728	-24.679600	-10.962590	 32.042930	 9.683438	-28.641440	 7.550157	 1.803333	 3.979147	-15.098590	 4.898592	 3.004813	-9.310344	 5.224449	 0.395017	 2.014677
-0.000110	 0.045081	 1.275498	-0.090318	 2.432610	 0.497477	 6.502929	-5.990888	 177.915800	 2.285613	-13.226670	 0.618698	-0.509475	 70.804850	 0.370195	-2.385833	 28.452750	 0.000004	 1.068102	-5.549467	-178.193800	-0.789787	-11.829310	 0.894722	 5.531683	 69.857550	 0.774409	 2.384659	 28.388700	-0.000001	-10.540330	 6.426637	 1.343663	-3.090176	-2.665180	-0.034433	 9.576087	 5.847794	-0.655513	-91.175050	 69.825810	-177.839700	-8.660785	 4.707389	-27.096480	 23.577100	-0.044763	-1.906423	-13.706480	-33.873710	-6.668562	-2.027600	 6.559038	 9.033609	-5.188889	 0.308190	 3.541030	-5.234859	 0.342567	 0.430617	 4.358413	 17.687980	-6.655029	 4.701782	-13.483050	 2.192796	 89.022400	 68.735030	 177.381400	 8.630863	 9.771875	 3.957652	-22.673730	-10.072880	 34.726400	 11.749640	-33.790130	 9.102752	 1.803333	 3.979147	-15.098590	 4.898592	 3.004813	-9.310344	 5.224449	 0.395017	 2.014677
-0.000401	 0.049284	 1.275277	-0.073017	 2.871465	 0.549980	 6.573153	-6.907104	 177.891700	 2.190857	-13.618900	 0.614346	-0.168578	 70.572020	 0.101256	-2.385833	 28.452750	 0.000004	 0.920127	-6.403353	-178.256600	-0.766583	-12.121560	 0.921396	 5.343844	 69.647510	 0.962823	 2.384659	 28.388700	-0.000001	-13.892240	 6.831012	 1.408782	-3.170985	-2.849953	 0.101592	 9.737587	 6.871029	-0.873837	-91.052850	 69.003510	-177.564200	-7.187786	 6.183860	-29.652030	 21.279050	 0.112461	-2.992668	-15.873810	-38.634380	-9.210896	-2.027600	 6.559038	 9.033609	-5.188889	 0.308190	 3.541030	-5.234859	 0.342567	 0.430617	 4.617624	 19.835880	-7.339152	 4.967144	-15.028440	 2.246978	 88.855380	 67.604840	 177.051000	 7.415640	 11.693590	 5.211104	-21.138700	-9.000400	 36.332140	 13.711960	-38.112310	 10.981640	 1.803333	 3.979147	-15.098590	 4.898592	 3.004813	-9.310344	 5.224449	 0.395017	 2.014677
-0.000821	 0.054275	 1.274742	-0.036508	 3.440702	 0.625129	 6.602870	-8.179080	 177.854000	 2.176200	-14.356670	 0.643300	 0.153750	 70.532140	-0.230091	-2.385833	 28.452750	 0.000004	 0.747900	-7.578658	-178.363200	-0.750189	-12.697830	 0.968109	 5.112550	 69.525640	 1.215868	 2.384659	 28.388700	-0.000001	-16.965230	 7.220220	 1.460965	-3.189248	-2.721470	 0.259025	 9.766153	 7.614664	-1.060333	-90.959340	 68.361380	-177.373500	-5.797355	 7.951772	-32.349520	 18.995790	 0.335013	-4.029491	-18.703340	-42.979950	-12.527750	-2.027600	 6.559038	 9.033609	-5.188889	 0.308190	 3.541030	-5.234859	 0.342567	 0.430617	 4.704765	 21.701240	-7.897990	 5.273501	-16.482360	 2.353055	 88.694630	 66.484910	 176.769800	 5.996790	 13.780110	 6.916809	-19.672440	-7.690036	 37.299710	 15.932280	-42.032820	 13.396710	 1.803333	 3.979147	-15.098590	 4.898592	 3.004813	-9.310344	 5.224449	 0.395017	 2.014677
-0.001324	 0.059680	 1.274140	 0.005580	 4.070054	 0.696120	 6.575658	-9.611559	 177.820400	 2.152414	-15.248800	 0.687345	 0.495772	 70.564370	-0.618442	-2.385833	 28.452750	 0.000004	 0.569443	-8.924376	-178.480300	-0.735331	-13.435770	 1.026828	 4.876409	 69.448430	 1.482661	 2.384659	 28.388700	-0.000001	-19.823760	 7.605206	 1.513544	-3.147735	-2.047721	 0.488921	 9.738592	 8.068716	-1.230776	-90.874920	 67.777910	-177.211900	-4.688162	 9.496031	-35.130340	 16.752770	 0.617812	-5.029769	-22.063550	-46.681650	-16.502460	-2.027600	 6.559038	 9.033609	-5.188889	 0.308190	 3.541030	-5.234859	 0.342567	 0.430617	 4.738519	 23.485700	-8.411777	 5.603887	-17.914630	 2.489586	 88.531530	 65.357290	 176.505900	 4.556318	 15.452340	 8.798985	-18.211730	-6.398310	 38.487900	 18.360300	-45.388370	 16.232910	 1.803333	 3.979147	-15.098590	 4.898592	 3.004813	-9.310344	 5.224449	 0.395017	 2.014677
-0.001812	 0.065466	 1.273841	 0.049433	 4.770362	 0.758714	 6.656863	-11.060110	 177.834200	 2.233470	-15.943560	 0.719915	 0.886969	 70.469820	-1.054659	-2.385833	 28.452760	 0.000004	 0.371226	-10.273310	-178.589300	-0.810728	-13.933750	 1.045879	 4.619781	 69.222820	 1.865397	 2.384659	 28.388700	-0.000001	-22.352630	 7.957256	 1.554634	-3.060637	-0.958909	 0.782623	 9.655881	 8.252597	-1.403433	-90.824690	 67.124410	-177.172500	-3.736885	 10.659280	-37.844480	 14.394440	 0.941809	-5.942755	-25.895330	-49.421130	-20.844280	-2.027600	 6.559038	 9.033609	-5.188889	 0.308190	 3.541030	-5.234859	 0.342567	 0.430617	 4.686086	 24.873460	-8.739461	 5.873568	-19.068290	 2.566672	 88.421530	 64.230800	 176.399500	 3.053401	 16.587670	 10.565660	-16.724450	-5.132643	 40.031820	 20.872070	-47.885940	 19.311010	 1.803333	 3.979147	-15.098590	 4.898592	 3.004813	-9.310344	 5.224449	 0.395017	 2.014677
-0.002255	 0.071169	 1.273855	 0.094673	 5.510757	 0.819766	 6.541655	-12.408150	 177.837000	 2.193726	-16.355970	 0.735530	 1.184134	 70.250210	-1.457120	-2.385832	 28.452790	-0.000001	 0.085216	-11.509960	-178.697900	-1.005968	-14.095800	 1.010002	 4.295161	 68.856710	 2.365673	 2.384659	 28.388700	-0.000001	-24.373620	 8.240704	 1.569269	-2.955523	 0.196301	 1.076293	 9.507718	 8.246799	-1.568642	-90.830150	 66.425280	-177.298100	-2.859863	 11.476450	-40.232360	 12.005090	 1.262627	-6.705609	-29.777740	-51.090950	-24.945920	-2.027600	 6.559038	 9.033609	-5.188889	 0.308190	 3.541030	-5.234859	 0.342567	 0.430617	 4.500618	 25.612810	-8.785518	 6.023778	-19.758910	 2.544818	 88.401690	 63.191300	 176.507900	 1.486704	 17.340310	 12.218790	-15.321040	-3.862172	 41.281830	 23.188270	-49.406340	 22.231570	 1.803333	 3.979147	-15.098590	 4.898592	 3.004813	-9.310344	 5.224449	 0.395017	 2.014677
-0.002849	 0.078118	 1.273930	 0.145062	 6.417224	 0.889699	 6.500272	-14.023600	 177.853100	 2.190320	-16.801770	 0.754018	 1.608840	 69.951780	-1.963221	-2.385832	 28.452790	-0.000001	-0.218522	-12.992260	-178.835600	-1.276260	-14.254000	 0.962064	 4.029385	 68.390990	 2.904832	 2.384659	 28.388700	-0.000001	-26.573530	 8.556380	 1.580825	-2.805453	 2.021359	 1.474355	 9.313316	 8.035801	-1.752446	-90.841120	 65.594260	-177.443200	-1.999724	 12.314050	-43.243080	 9.236951	 1.679248	-7.565066	-34.205640	-52.263100	-29.636930	-2.027600	 6.559038	 9.033609	-5.188889	 0.308190	 3.541030	-5.234859	 0.342567	 0.430617	 4.279562	 26.492430	-8.832616	 6.198672	-20.576500	 2.524215	 88.384320	 61.955700	 176.630900	-0.357940	 18.070910	 14.620880	-13.766540	-2.321971	 42.523050	 25.695760	-50.512030	 25.493390	 1.803333	 3.979147	-15.098590	 4.898592	 3.004813	-9.310344	 5.224449	 0.395017	 2.014677
